<?xml version="1.0" encoding="utf-8"?>
<!-- Generator: Adobe Illustrator 21.1.0, SVG Export Plug-In . SVG Version: 6.00 Build 0)  -->
<svg version="1.1" id="Layer_2" xmlns="http://www.w3.org/2000/svg" xmlns:xlink="http://www.w3.org/1999/xlink" x="0px" y="0px"
	 viewBox="0 0 40 20" style="enable-background:new 0 0 40 20;" xml:space="preserve">
<style type="text/css">
	.st0{fill:#E21836;}
	.st1{fill:#00447C;}
	.st2{fill:#007B84;}
	.st3{fill:#FEFEFE;}
</style>
<g>
	<path class="st0" d="M10.6,0.4h7.7c1.1,0,1.7,0.9,1.5,1.9l-3.6,15.3c-0.3,1.1-1.3,1.9-2.4,1.9H6.2c-1.1,0-1.7-0.9-1.5-1.9L8.2,2.4
		C8.5,1.3,9.6,0.4,10.6,0.4"/>
	<path class="st1" d="M17.6,0.4h8.8c1.1,0,0.6,0.9,0.3,1.9l-3.6,15.3C23,18.7,23,19.6,22,19.6h-8.8c-1.1,0-1.7-0.9-1.5-1.9l3.6-15.3
		C15.5,1.3,16.6,0.4,17.6,0.4"/>
	<path class="st2" d="M26.1,0.4h7.7c1.1,0,1.7,0.9,1.5,1.9l-3.6,15.3c-0.3,1.1-1.3,1.9-2.4,1.9h-7.6c-1.1,0-1.7-0.9-1.5-1.9
		l3.6-15.3C24,1.3,25,0.4,26.1,0.4"/>
	<path class="st3" d="M12.6,5.3c-0.8,0-1,0-1.1,0c0,0.1-0.6,2.6-0.6,2.6c-0.1,0.5-0.2,0.8-0.5,1.1c-0.2,0.1-0.3,0.2-0.6,0.2
		C9.6,9.2,9.4,9,9.3,8.7l0-0.1c0,0,0.1-0.7,0.1-0.7c0,0,0.6-2.2,0.7-2.5c0,0,0,0,0,0c-1.1,0-1.3,0-1.3,0c0,0,0,0.2,0,0.2L8.2,8
		l0,0.2L8.1,8.9c0,0.2,0,0.4,0.1,0.5c0.3,0.5,1,0.5,1.4,0.5c0.5,0,1-0.1,1.4-0.3c0.6-0.4,0.7-0.9,0.9-1.4L11.9,8
		C11.9,8,12.5,5.6,12.6,5.3C12.6,5.3,12.6,5.3,12.6,5.3z M14.6,7.2c-0.1,0-0.4,0-0.6,0.1c-0.1,0-0.2,0.1-0.2,0.1l0.1-0.3l0,0
		c-0.5,0.1-0.6,0.1-1,0.2l0,0c-0.1,0.4-0.1,0.8-0.3,1.6c-0.1,0.3-0.1,0.6-0.2,0.9l0,0c0.5,0,0.6,0,1,0l0,0c0.1-0.3,0.1-0.3,0.2-0.8
		c0.1-0.2,0.2-0.8,0.2-1c0.1,0,0.2-0.1,0.3-0.1c0.2,0,0.2,0.2,0.2,0.3c0,0.1-0.1,0.6-0.2,0.9l-0.1,0.2c0,0.2-0.1,0.3-0.1,0.5l0,0
		c0.4,0,0.6,0,1,0l0,0c0.1-0.4,0.1-0.5,0.2-1.1L15,8.5c0.1-0.5,0.2-0.8,0.1-1C15,7.2,14.8,7.2,14.6,7.2z M16.8,7.7
		c-0.2,0-0.4,0.1-0.5,0.1c-0.2,0-0.3,0-0.5,0.1l0,0l0,0c0,0.2,0,0.3-0.1,0.5c0,0.2-0.1,0.4-0.1,0.7c-0.1,0.2-0.1,0.3-0.1,0.4
		c0,0.1-0.1,0.2-0.1,0.4l0,0l0,0c0.2,0,0.4,0,0.5,0c0.1,0,0.3,0,0.5,0l0,0l0,0c0-0.2,0-0.3,0.1-0.4c0-0.1,0.1-0.2,0.1-0.6
		c0-0.2,0.1-0.4,0.1-0.5C16.7,8.1,16.7,8,16.8,7.7L16.8,7.7L16.8,7.7z M16.8,7c-0.2-0.1-0.6-0.1-0.9,0.1c-0.3,0.2-0.3,0.4-0.1,0.5
		c0.2,0.1,0.6,0.1,0.9-0.1C16.9,7.4,17,7.1,16.8,7z M18.1,10c0.4,0,0.9-0.1,1.2-0.5c0.3-0.3,0.4-0.7,0.4-0.9c0.1-0.6,0-0.9-0.1-1
		c-0.2-0.3-0.6-0.3-0.9-0.3c-0.2,0-0.7,0-1.2,0.4c-0.3,0.3-0.4,0.6-0.5,1c-0.1,0.4-0.2,1,0.4,1.3C17.6,9.9,17.9,10,18.1,10z M18,8.6
		c0.1-0.4,0.2-0.8,0.5-0.8c0.2,0,0.3,0.3,0.2,0.7c0,0.1-0.1,0.5-0.2,0.6c-0.1,0.1-0.2,0.2-0.3,0.2c0,0-0.2,0-0.2-0.3
		C18,8.9,18,8.8,18,8.6z M20.8,9.9L20.8,9.9C20.9,9.6,20.9,9.5,21,9c0.1-0.2,0.2-0.8,0.2-1c0.1,0,0.2-0.1,0.3-0.1
		c0.2,0,0.2,0.2,0.2,0.3c0,0.1-0.1,0.6-0.2,0.9l-0.1,0.2c0,0.2-0.1,0.3-0.1,0.5l0,0c0.5,0,0.6,0,1,0l0,0c0.1-0.4,0.1-0.5,0.2-1.1
		l0.1-0.3c0.1-0.5,0.2-0.8,0.1-1c-0.1-0.2-0.3-0.3-0.5-0.3c-0.1,0-0.4,0-0.6,0.1c-0.1,0-0.2,0.1-0.2,0.1l0.1-0.3l0,0
		c-0.5,0.1-0.6,0.1-1,0.2l0,0c-0.1,0.4-0.1,0.8-0.3,1.6c-0.1,0.3-0.1,0.6-0.2,0.9l0,0C20.3,9.9,20.4,9.9,20.8,9.9z M24.1,9.9
		c0-0.1,0.2-1,0.2-1c0,0,0.1-0.6,0.2-0.6c0,0,0-0.1,0.1-0.1h0.1c0.6,0,1.3,0,1.9-0.4c0.4-0.3,0.6-0.7,0.8-1.2c0-0.1,0.1-0.3,0.1-0.4
		c0-0.2,0-0.4-0.2-0.5c-0.3-0.4-0.8-0.4-1.5-0.4c0,0-0.3,0-0.3,0c-0.8,0-1.2,0-1.3,0c0,0.1,0,0.2,0,0.2s-0.3,1.4-0.3,1.4
		c0,0-0.7,2.9-0.7,3.1C23.7,9.9,24,9.9,24.1,9.9z M24.7,7.5c0,0,0.3-1.4,0.3-1.4L25,6L25,6l0.1,0c0,0,0.7,0.1,0.7,0.1
		c0.3,0.1,0.4,0.4,0.3,0.7C26,7,25.8,7.3,25.6,7.4c-0.2,0.1-0.5,0.1-0.7,0.1L24.7,7.5L24.7,7.5z M26.7,8.7c-0.1,0.4-0.2,1,0.4,1.2
		c0.2,0.1,0.4,0.1,0.5,0.1c0.2,0,0.4-0.1,0.5-0.2c0,0.1,0,0.1,0,0.2l0,0c0.4,0,0.6,0,1,0l0,0c0.1-0.4,0.1-0.8,0.3-1.6
		c0.1-0.4,0.2-0.7,0.3-1.1l0,0c-0.5,0.1-0.6,0.1-1.1,0.2l0,0c0,0,0,0.1,0,0.1c-0.1-0.1-0.2-0.2-0.3-0.3c-0.2-0.1-0.7,0-1.1,0.4
		C26.9,7.9,26.7,8.3,26.7,8.7z M27.7,8.7c0.1-0.4,0.2-0.8,0.5-0.8c0.2,0,0.3,0.2,0.3,0.5c0,0.1,0,0.2-0.1,0.2c0,0.1-0.1,0.3-0.1,0.4
		c0,0.1-0.1,0.2-0.1,0.2c-0.1,0.1-0.3,0.2-0.4,0.2c0,0-0.2,0-0.2-0.3C27.6,9,27.6,8.8,27.7,8.7z M32.9,7.2L32.9,7.2
		c-0.5,0.1-0.6,0.1-1,0.1l0,0c0,0,0,0,0,0l0,0c-0.3,0.7-0.3,0.6-0.6,1.2c0,0,0,0,0-0.1l-0.1-1.3l0,0c-0.5,0.1-0.5,0.1-1,0.2l0,0
		c0,0,0,0,0,0.1l0,0c0.1,0.3,0,0.2,0.1,0.7c0,0.2,0.1,0.5,0.1,0.7c0,0.4,0.1,0.6,0.1,1.1c-0.3,0.5-0.4,0.7-0.7,1.2l0,0l-0.2,0.3
		c0,0,0,0.1-0.1,0.1c0,0-0.1,0-0.1,0h-0.1l-0.2,0.6l0.6,0c0.3,0,0.6-0.2,0.7-0.4l0.4-0.6h0l0,0C31,10.5,32.9,7.2,32.9,7.2z
		 M26.7,14.8h-0.3l0.9-3.1h0.3l0.1-0.3l0,0.4c0,0.2,0.2,0.4,0.6,0.4h0.5l0.2-0.6h-0.2c-0.1,0-0.2,0-0.2-0.1l0-0.4h-1v0
		c-0.3,0-1.2,0-1.4,0.1c-0.2,0.1-0.5,0.2-0.5,0.2l0.1-0.3H25l-0.2,0.6l-0.9,3.1h-0.2l-0.2,0.6h1.8l-0.1,0.2h0.9l0.1-0.2h0.2
		L26.7,14.8z M25.9,12.3c-0.1,0-0.4,0.2-0.4,0.2l0.2-0.8h0.7l-0.2,0.6C26.3,12.3,26.1,12.3,25.9,12.3z M25.9,13.5c0,0-0.2,0-0.4,0.1
		c-0.1,0-0.4,0.2-0.4,0.2l0.2-0.8h0.7L25.9,13.5z M25.5,14.8h-0.7l0.2-0.7h0.7L25.5,14.8z M27.3,12.9h1l-0.1,0.5h-1.1L27,13.9h0.9
		l-0.7,1c0,0.1-0.1,0.1-0.1,0.1c0,0-0.1,0.1-0.2,0.1h-0.3l-0.2,0.6h0.7c0.3,0,0.6-0.2,0.7-0.4l0.5-0.7l0.1,0.7
		c0,0.1,0.1,0.2,0.2,0.2c0.1,0,0.1,0.1,0.2,0.1c0.1,0,0.2,0,0.2,0h0.3l0.2-0.6h-0.1c-0.1,0-0.2,0-0.2,0c0,0,0-0.1,0-0.1L29,14.1
		h-0.4l0.2-0.2h1.1l0.2-0.5h-1l0.2-0.5h1l0.2-0.6h-2.9L27.3,12.9z M18.5,14.9l0.2-0.8h1l0.2-0.6h-1l0.2-0.5h1l0.2-0.6h-2.4L17.6,13
		h0.6L18,13.5h-0.6l-0.2,0.6h0.6l-0.3,1.1c0,0.1,0,0.2,0.1,0.3c0,0.1,0.1,0.1,0.2,0.1c0.1,0,0.2,0,0.3,0h1.1l0.2-0.7L18.8,15
		C18.7,15,18.5,15,18.5,14.9z M18.6,11.1l-0.3,0.5c-0.1,0.1-0.1,0.2-0.1,0.2c0,0-0.1,0-0.2,0h-0.1l-0.2,0.6h0.4
		c0.2,0,0.4-0.1,0.4-0.1c0.1,0,0.1,0,0.2-0.1l0.1-0.1h1.4l0.2-0.6h-1l0.2-0.3H18.6z M20.6,14.9c0,0,0-0.1,0-0.2l0.4-1.2h1.3
		c0.2,0,0.3,0,0.4,0c0.1,0,0.2,0,0.3-0.1c0.1-0.1,0.2-0.1,0.2-0.2c0.1-0.1,0.2-0.3,0.2-0.5l0.5-1.6l-1.4,0c0,0-0.4,0.1-0.6,0.1
		c-0.2,0.1-0.5,0.3-0.5,0.3l0.1-0.4h-0.9l-1.2,4c0,0.2-0.1,0.3-0.1,0.3c0,0.1,0.1,0.1,0.2,0.2c0.1,0.1,0.2,0,0.3,0.1
		c0.1,0,0.3,0,0.5,0h0.7l0.2-0.7L20.8,15C20.7,15,20.6,15,20.6,14.9z M21.3,12.7h1.4l-0.1,0.3c0,0,0,0-0.2,0h-1.2L21.3,12.7z
		 M21.5,11.7H23l-0.1,0.3c0,0-0.7,0-0.8,0c-0.5,0.1-0.7,0.3-0.7,0.3L21.5,11.7z M22.6,13.9C22.6,13.9,22.6,13.9,22.6,13.9
		C22.5,14,22.5,14,22.4,14h-0.2l0-0.3h-0.8l0,1.7c0,0.1,0,0.2,0.1,0.2c0.1,0.1,0.4,0.1,0.7,0.1h0.5l0.2-0.6l-0.5,0l-0.2,0
		c0,0,0,0-0.1,0c0,0-0.1,0,0-0.1l0-0.4l0.5,0c0.3,0,0.4-0.1,0.5-0.2c0.1-0.1,0.1-0.2,0.2-0.3l0.1-0.4h-0.7L22.6,13.9z"/>
</g>
</svg>
