<?xml version="1.0" encoding="utf-8"?>
<!-- Generator: Adobe Illustrator 21.1.0, SVG Export Plug-In . SVG Version: 6.00 Build 0)  -->
<svg version="1.1" id="Layer_1" xmlns="http://www.w3.org/2000/svg" xmlns:xlink="http://www.w3.org/1999/xlink" x="0px" y="0px"
	 viewBox="0 0 100 100" style="enable-background:new 0 0 100 100;" xml:space="preserve">
<style type="text/css">
	.st0{fill:#33CC99;}
</style>
<g>
	<g>
		<path class="st0" d="M73.5,90h-46c-2.5,0-4.9-1-6.6-2.8c-1.7-1.8-2.6-4.2-2.4-6.6l3.2-51.6c0.1-1.6,1.4-2.9,3.1-2.9h51.6
			c1.6,0,3,1.3,3.1,2.9l3.2,51.6c0.1,2.4-0.7,4.9-2.4,6.6C78.4,89,76,90,73.5,90z M27.6,32.1l-3,48.8c0,0.8,0.2,1.5,0.8,2.1
			c0.5,0.6,1.3,0.9,2.1,0.9h46c0.8,0,1.5-0.3,2.1-0.9c0.5-0.6,0.8-1.3,0.8-2.1l-3-48.8H27.6z"/>
	</g>
	<g>
		<path class="st0" d="M67.3,26.6h-6.2c0-5.8-4.8-10.5-10.6-10.5c-5.9,0-10.6,4.7-10.6,10.5h-6.2c0-9.1,7.5-16.6,16.8-16.6
			S67.3,17.4,67.3,26.6z"/>
	</g>
	<g>
		<path class="st0" d="M44.2,77.6c-1.3,0-2.5-0.8-2.9-2c-0.6-1.6,0.3-3.3,1.9-3.9C70,62.4,84.3,53.1,86.6,48
			c0.2-0.4,0.2-0.7,0.2-0.9c-0.4-0.3-2.1-1.2-9.6-0.9c-1.7,0.1-3.1-1.3-3.2-2.9c-0.1-1.7,1.3-3.1,3-3.1c6.4-0.2,13.4-0.1,15.5,4.5
			c0.5,1.2,1,3.2-0.2,5.8c-3.5,8-21.1,18.1-47,27C44.9,77.5,44.6,77.6,44.2,77.6z"/>
	</g>
	<g>
		<path class="st0" d="M15.2,71.9c-3.7,0-6.5-1-7.8-3.8C5,62.5,13.8,55.9,21.6,51.4c1.5-0.8,3.4-0.4,4.2,1.1
			c0.9,1.5,0.4,3.3-1.1,4.2c-6.7,3.9-10.4,7.3-11.4,9c1.9,0.4,10,0.8,40.2-11.5c1.6-0.6,3.4,0.1,4,1.7c0.6,1.6-0.1,3.3-1.7,4
			c-7.9,3.2-19.2,7.5-28.4,10C23.2,70.9,18.8,71.9,15.2,71.9z"/>
	</g>
</g>
</svg>
