<?xml version="1.0" encoding="utf-8"?>
<!-- Generator: Adobe Illustrator 21.1.0, SVG Export Plug-In . SVG Version: 6.00 Build 0)  -->
<svg version="1.1" id="Layer_2" xmlns="http://www.w3.org/2000/svg" xmlns:xlink="http://www.w3.org/1999/xlink" x="0px" y="0px"
	 viewBox="0 0 40 20" style="enable-background:new 0 0 40 20;" xml:space="preserve">
<style type="text/css">
	.st0{fill:none;}
	.st1{fill:#00579F;}
	.st2{fill:#FAA61A;}
</style>
<g>
	<path class="st0" d="M35,7.2c-0.2,0.5-0.4,1.2-0.4,1.2c0,0-1,2.8-1.3,3.5c0.6,0,2.2,0,2.7,0c-0.1-0.6-0.7-3.6-0.7-3.6L35,7.2z"/>
	<polygon class="st1" points="16.2,3.8 14.2,16.2 17.4,16.2 19.4,3.8 	"/>
	<path class="st1" d="M25.8,8.8c-1.1-0.6-1.8-1-1.8-1.5c0-0.5,0.6-1.1,1.8-1.1c1,0,1.8,0.2,2.4,0.5l0.3,0.1L29,4.1
		c-0.6-0.3-1.6-0.5-2.9-0.5c-3.2,0-5.4,1.7-5.4,4.1c0,1.8,1.6,2.8,2.8,3.4c1.2,0.6,1.7,1,1.7,1.5c0,0.8-1,1.2-1.9,1.2
		c-1.3,0-2-0.2-3-0.7L19.8,13l-0.4,2.8c0.8,0.3,2.1,0.6,3.6,0.7c3.4,0,5.6-1.7,5.6-4.2C28.5,10.8,27.7,9.7,25.8,8.8z"/>
	<path class="st1" d="M37.2,3.8h-2.5c-0.8,0-1.3,0.2-1.7,1l-4.8,11.4h3.4c0,0,0.6-1.5,0.7-1.9c0.4,0,3.6,0,4.1,0
		c0.1,0.4,0.4,1.9,0.4,1.9h3L37.2,3.8z M33.3,11.8c0.3-0.7,1.3-3.5,1.3-3.5c0,0,0.3-0.7,0.4-1.2l0.2,1.1c0,0,0.6,3,0.7,3.6
		C35.4,11.8,33.9,11.8,33.3,11.8z"/>
	<path class="st1" d="M11.5,3.8l-3.1,8.5L8,10.6c0,0,0,0,0,0l0,0c-0.8-2-2.3-3.8-4.4-5.1l2.9,10.8h3.4l5-12.4H11.5z"/>
	<path class="st2" d="M8,10.6L6.9,4.9c-0.2-0.8-0.8-1-1.5-1H0.3L0.2,4.1c1.3,0.3,2.4,0.8,3.4,1.4l0-0.1C5.6,6.4,7.4,8.6,8,10.6z"/>
	<path class="st2" d="M8,10.6L8,10.6c-0.6-2-2.4-4.1-4.4-5.2l0,0.1C5.7,6.7,7.2,8.5,8,10.6z"/>
</g>
</svg>
