<?xml version="1.0" encoding="utf-8"?>
<!-- Generator: Adobe Illustrator 21.1.0, SVG Export Plug-In . SVG Version: 6.00 Build 0)  -->
<svg version="1.1" id="Layer_2" xmlns="http://www.w3.org/2000/svg" xmlns:xlink="http://www.w3.org/1999/xlink" x="0px" y="0px"
	 viewBox="0 0 40 20" style="enable-background:new 0 0 40 20;" xml:space="preserve">
<style type="text/css">
	.st0{fill:none;}
	.st1{fill:#FF5A00;}
	.st2{fill:#EB001B;}
	.st3{fill:#F79E1B;}
</style>
<g>
	<path class="st0" d="M20.1,17.9c-0.3,0-0.5,0.2-0.6,0.5h1.1C20.6,18.1,20.4,17.9,20.1,17.9z"/>
	<path class="st0" d="M13.5,18c-0.4,0-0.6,0.3-0.6,0.7c0,0.4,0.2,0.6,0.6,0.7c0.4,0,0.6-0.3,0.6-0.7C14.1,18.2,13.9,18,13.5,18z"/>
	<path class="st0" d="M26.1,18c-0.4,0-0.6,0.3-0.6,0.7c0,0.4,0.2,0.6,0.6,0.7c0.4,0,0.6-0.3,0.6-0.7C26.7,18.2,26.5,18,26.1,18z"/>
	<path class="st0" d="M30.3,18c-0.4,0-0.6,0.3-0.6,0.7c0,0.4,0.2,0.6,0.6,0.7c0.4,0,0.6-0.3,0.6-0.7C30.9,18.2,30.6,18,30.3,18z"/>
	<path d="M16.1,18.4l-0.2,0c-0.2,0-0.3-0.1-0.3-0.2c0-0.2,0.1-0.2,0.4-0.2c0.3,0,0.5,0.1,0.6,0.2l0.2-0.4c-0.2-0.2-0.5-0.2-0.8-0.2
		c-0.5,0-0.9,0.3-0.9,0.7c0,0.3,0.3,0.5,0.7,0.6l0.2,0c0.2,0,0.4,0.1,0.4,0.2c0,0.2-0.2,0.3-0.5,0.3s-0.5-0.1-0.7-0.2L15,19.4
		c0.2,0.2,0.6,0.3,0.9,0.3c0.6,0,0.9-0.3,0.9-0.7C16.8,18.7,16.5,18.5,16.1,18.4z"/>
	<path d="M18.3,19.3c-0.2,0-0.3-0.1-0.3-0.3V18h0.7v-0.4H18V17h-0.5v0.6h-0.4V18h0.4V19c0,0.5,0.2,0.8,0.7,0.8
		c0.2,0,0.4-0.1,0.6-0.2l-0.1-0.4C18.5,19.2,18.4,19.3,18.3,19.3z"/>
	<path d="M11.2,17.6c-0.3,0-0.5,0.1-0.7,0.4c-0.1-0.2-0.4-0.4-0.7-0.4c-0.2,0-0.4,0.1-0.6,0.3v-0.3H8.8v2.1h0.5v-1.1
		c0-0.4,0.2-0.5,0.5-0.5s0.5,0.2,0.5,0.5v1.1h0.5v-1.1c0-0.4,0.2-0.5,0.5-0.5c0.3,0,0.5,0.2,0.5,0.5v1.1H12v-1.3
		C12,17.9,11.7,17.6,11.2,17.6z"/>
	<path d="M14.1,17.9c-0.1-0.2-0.4-0.3-0.6-0.3c-0.6,0-1,0.5-1,1.1s0.5,1.1,1,1.1c0.3,0,0.5-0.1,0.6-0.3v0.3h0.5v-1v-1h-0.5V17.9z
		 M13.5,19.3c-0.4,0-0.6-0.3-0.6-0.7c0-0.4,0.2-0.7,0.6-0.7c0.4,0,0.6,0.3,0.6,0.7C14.1,19,13.9,19.3,13.5,19.3z"/>
	<path d="M24.1,18c0.2,0,0.4,0.1,0.5,0.2l0.2-0.4c-0.2-0.2-0.4-0.2-0.7-0.2c-0.7,0-1.1,0.5-1.1,1.1s0.4,1.1,1.1,1.1
		c0.3,0,0.5-0.1,0.7-0.2l-0.2-0.4c-0.2,0.1-0.3,0.2-0.5,0.2c-0.4,0-0.6-0.3-0.6-0.7C23.4,18.2,23.7,18,24.1,18z"/>
	<path d="M20.1,17.6c-0.6,0-1,0.4-1,1.1c0,0.6,0.4,1.1,1.1,1.1c0.3,0,0.6-0.1,0.8-0.3l-0.2-0.3c-0.2,0.1-0.4,0.2-0.6,0.2
		c-0.3,0-0.6-0.1-0.6-0.5h1.5c0-0.1,0-0.1,0-0.2C21.1,18,20.7,17.6,20.1,17.6z M19.5,18.4c0-0.3,0.2-0.5,0.6-0.5
		c0.3,0,0.5,0.2,0.5,0.5H19.5z"/>
	<path d="M30.8,17.9c-0.2-0.2-0.4-0.3-0.6-0.3c-0.6,0-1,0.5-1,1.1s0.4,1.1,1,1.1c0.3,0,0.5-0.1,0.6-0.3v0.3h0.5v-1v-1.8h-0.5V17.9z
		 M30.3,19.3c-0.4,0-0.6-0.3-0.6-0.7c0-0.4,0.2-0.7,0.6-0.7c0.4,0,0.6,0.3,0.6,0.7C30.9,19,30.6,19.3,30.3,19.3z"/>
	<path d="M28.2,17.9v-0.3h-0.5v2.1h0.5v-1.2c0-0.3,0.2-0.5,0.4-0.5c0.1,0,0.2,0,0.3,0l0.1-0.4c-0.1,0-0.2,0-0.3,0
		C28.5,17.6,28.3,17.7,28.2,17.9z"/>
	<path d="M22,17.9v-0.3h-0.4v2.1H22v-1.2c0-0.3,0.2-0.5,0.4-0.5c0.1,0,0.2,0,0.3,0l0.1-0.4c-0.1,0-0.2,0-0.3,0
		C22.3,17.6,22.1,17.7,22,17.9z"/>
	<path d="M26.7,17.9c-0.1-0.2-0.4-0.3-0.6-0.3c-0.6,0-1,0.5-1,1.1s0.5,1.1,1,1.1c0.3,0,0.5-0.1,0.6-0.3v0.3h0.5v-1v-1h-0.5V17.9z
		 M26.1,19.3c-0.4,0-0.6-0.3-0.6-0.7c0-0.4,0.2-0.7,0.6-0.7c0.4,0,0.6,0.3,0.6,0.7C26.7,19,26.5,19.3,26.1,19.3z"/>
	<path class="st1" d="M17.1,8c0,2.5,1.2,4.7,2.9,6.1c1.8-1.4,2.9-3.6,2.9-6.1c0-2.5-1.2-4.7-2.9-6.1C18.2,3.4,17.1,5.6,17.1,8z"/>
	<path class="st2" d="M15.2,15.8c1.8,0,3.5-0.6,4.8-1.7h-3.4V2H20c-1.3-1-3-1.7-4.8-1.7C11,0.3,7.5,3.8,7.5,8
		C7.5,12.3,11,15.8,15.2,15.8z"/>
	<path class="st2" d="M16.6,14.1H20c-1.8-1.4-2.9-3.6-2.9-6.1c0-2.5,1.2-4.7,2.9-6.1h-3.4V14.1z"/>
	<path class="st3" d="M23.4,14.1H20c1.3,1,3,1.7,4.8,1.7c4.3,0,7.7-3.5,7.7-7.7c0-4.2-3.5-7.7-7.7-7.7C23,0.3,21.3,0.9,20,2h3.4
		V14.1z"/>
	<path class="st3" d="M22.9,8c0,2.5-1.1,4.7-2.9,6.1h3.4V2H20C21.8,3.4,22.9,5.6,22.9,8z"/>
</g>
</svg>
