<?xml version="1.0" encoding="utf-8"?>
<!-- Generator: Adobe Illustrator 21.1.0, SVG Export Plug-In . SVG Version: 6.00 Build 0)  -->
<svg version="1.1" id="Layer_1" xmlns="http://www.w3.org/2000/svg" xmlns:xlink="http://www.w3.org/1999/xlink" x="0px" y="0px"
	 viewBox="0 0 100 100" style="enable-background:new 0 0 100 100;" xml:space="preserve">
<style type="text/css">
	.st0{fill:#00AF91;}
	.st1{fill:#6633CC;}
</style>
<g>
	<g>
		<g>
			<path class="st0" d="M85.9,83.2C84.2,85,81.8,86,79.2,86H39.5c-3.3,0-6.2-2-7.4-5C32,80.8,32,80.7,32,80.5h47.3
				c1.1,0,2.1-0.4,2.7-1.1c0.3-0.3,0.7-0.9,0.6-1.6l-3-43.8h-53l0.2-2.9c0.1-1.4,1.3-2.5,2.7-2.5H82c1.4,0,2.6,1.1,2.7,2.5L88,77.5
				C88.1,79.6,87.4,81.6,85.9,83.2z"/>
		</g>
		<g>
			<path class="st0" d="M70.6,28.9h-5.5c0-5.2-4.2-9.4-9.4-9.4s-9.4,4.2-9.4,9.4h-5.5c0-8.2,6.7-14.9,14.9-14.9
				C63.9,14,70.6,20.7,70.6,28.9z"/>
		</g>
		<g>
			<path class="st0" d="M73.5,34.1l-0.2-2.9c-0.1-1.4-1.3-2.5-2.7-2.5H18c-1.4,0-2.6,1.1-2.7,2.5L12,77.5c-0.2,2.1,0.6,4.1,2.1,5.7
				c1.7,1.8,4.1,2.8,6.7,2.8h39.3c-0.3-0.6-0.5-1.3-0.5-2c-0.1-1.2,0.4-2.4,0.3-3.4H20.8c-1.1,0-2.1-0.4-2.7-1.1
				c-0.3-0.3-0.7-0.9-0.6-1.6l3-43.8h47.5l3,39.2c0.1,1.5,1.4,2.6,2.9,2.5c1.5-0.1,2.6-1.4,2.5-2.9L73.5,34.1z"/>
		</g>
		<g>
			<path class="st0" d="M59.1,28.9h-5.5c0-5.2-4.2-9.4-9.4-9.4c-5.2,0-9.4,4.2-9.4,9.4h-5.5c0-8.2,6.7-14.9,14.9-14.9
				C52.5,14,59.1,20.7,59.1,28.9z"/>
		</g>
	</g>
</g>
<circle class="st1" cx="50" cy="57" r="25"/>
</svg>
